<svg width="45" height="52" viewBox="0 0 45 52" fill="none" xmlns="http://www.w3.org/2000/svg">
<path d="M29.5312 6.5C27.0098 6.5 24.7247 7.046 22.9388 8.07462C21.1542 9.10325 19.6875 10.7786 19.6875 13V19.5C19.6875 19.7096 19.748 19.9128 19.7761 20.1094C18.3685 19.696 16.9211 19.4913 15.4688 19.5C12.9473 19.5 10.6622 20.046 8.87625 21.0746C7.09172 22.1032 5.625 23.7786 5.625 26V39C5.625 41.2214 7.09172 42.8968 8.87766 43.9254C10.6622 44.954 12.9473 45.5 15.4688 45.5C17.9902 45.5 20.2753 44.954 22.0612 43.9254C23.8444 42.8968 25.3125 41.2214 25.3125 39V38.3403C26.6882 38.77 28.1062 38.9918 29.5312 39C32.0527 39 34.3378 38.454 36.1237 37.4254C37.9069 36.3967 39.375 34.7214 39.375 32.5V13C39.375 10.7786 37.9083 9.10325 36.1223 8.07462C34.3392 7.046 32.0541 6.5 29.5312 6.5ZM29.5312 9.75C31.673 9.75 33.5798 10.283 34.8483 11.0191C36.1181 11.7553 36.5625 12.5304 36.5625 13C36.5625 13.4713 36.1181 14.2447 34.8483 14.9809C33.5812 15.717 31.673 16.25 29.5312 16.25C27.3895 16.25 25.4827 15.717 24.2142 14.9809C22.9444 14.2447 22.5 13.4696 22.5 13C22.5 12.5287 22.9444 11.7553 24.2142 11.0191C25.4813 10.283 27.3895 9.75 29.5312 9.75ZM22.5 17.6215C22.6477 17.7157 22.7855 17.8376 22.9402 17.9254C24.7247 18.954 27.0098 19.5 29.5312 19.5C32.0527 19.5 34.3378 18.954 36.1237 17.9254C36.277 17.8376 36.4148 17.7157 36.5625 17.6215V19.5C36.5625 19.9712 36.1181 20.7448 34.8483 21.4809C33.5798 22.217 31.673 22.75 29.5312 22.75C27.3895 22.75 25.4827 22.217 24.2142 21.4809C22.9444 20.7448 22.5 19.9696 22.5 19.5V17.6215ZM15.4688 22.75C17.6105 22.75 19.5173 23.283 20.7858 24.0191C22.0556 24.7553 22.5 25.5304 22.5 26C22.5 26.4713 22.0556 27.2447 20.7858 27.9809C19.5173 28.717 17.6105 29.25 15.4688 29.25C13.327 29.25 11.4202 28.717 10.1517 27.9809C8.88187 27.2447 8.4375 26.4696 8.4375 26C8.4375 25.5287 8.88187 24.7553 10.1517 24.0191C11.4187 23.283 13.327 22.75 15.4688 22.75ZM36.5625 24.1215V26C36.5625 26.4713 36.1181 27.2447 34.8483 27.9809C33.5798 28.717 31.673 29.25 29.5312 29.25C28.0987 29.259 26.6743 29.0016 25.3125 28.4879V26C25.3125 25.7904 25.252 25.5872 25.2239 25.3906C26.5317 25.7839 27.9816 26 29.5312 26C32.0527 26 34.3378 25.454 36.1237 24.4254C36.277 24.3376 36.4148 24.2157 36.5625 24.1215ZM8.4375 30.6215C8.58516 30.7157 8.72297 30.8376 8.87766 30.9254C10.6622 31.954 12.9473 32.5 15.4688 32.5C17.9902 32.5 20.2753 31.954 22.0612 30.9254C22.2145 30.8376 22.3523 30.7157 22.5 30.6215V32.5C22.5 32.9713 22.0556 33.7447 20.7858 34.4809C19.5173 35.217 17.6105 35.75 15.4688 35.75C13.327 35.75 11.4202 35.217 10.1517 34.4809C8.88187 33.7447 8.4375 32.9696 8.4375 32.5V30.6215ZM36.5625 30.6215V32.5C36.5625 32.9713 36.1181 33.7447 34.8483 34.4809C33.5798 35.217 31.673 35.75 29.5312 35.75C27.9323 35.75 26.4881 35.49 25.3125 35.0382V31.8906C26.6034 32.2839 28.0097 32.5 29.5312 32.5C32.0527 32.5 34.3378 31.954 36.1237 30.9254C36.277 30.8376 36.4148 30.7157 36.5625 30.6215ZM8.4375 37.1215C8.58516 37.2157 8.72297 37.3376 8.87766 37.4254C10.6622 38.454 12.9473 39 15.4688 39C17.9902 39 20.2753 38.454 22.0612 37.4254C22.2145 37.3376 22.3523 37.2157 22.5 37.1215V39C22.5 39.4712 22.0556 40.2448 20.7858 40.9809C19.5173 41.717 17.6105 42.25 15.4688 42.25C13.327 42.25 11.4202 41.717 10.1517 40.9809C8.88187 40.2448 8.4375 39.4696 8.4375 39V37.1215Z" fill="white"/>
</svg>
