<svg width="77" height="26" viewBox="0 0 77 26" fill="none" xmlns="http://www.w3.org/2000/svg">
<path d="M30.256 17.098C29.6027 17.098 29.0147 16.986 28.492 16.762C27.9693 16.5287 27.5587 16.202 27.26 15.782C26.9613 15.362 26.812 14.872 26.812 14.312H28.52C28.5573 14.732 28.7207 15.0773 29.01 15.348C29.3087 15.6187 29.724 15.754 30.256 15.754C30.8067 15.754 31.236 15.6233 31.544 15.362C31.852 15.0913 32.006 14.746 32.006 14.326C32.006 13.9993 31.908 13.7333 31.712 13.528C31.5253 13.3227 31.2873 13.164 30.998 13.052C30.718 12.94 30.326 12.8187 29.822 12.688C29.1873 12.52 28.6693 12.352 28.268 12.184C27.876 12.0067 27.54 11.736 27.26 11.372C26.98 11.008 26.84 10.5227 26.84 9.916C26.84 9.356 26.98 8.866 27.26 8.446C27.54 8.026 27.932 7.704 28.436 7.48C28.94 7.256 29.5233 7.144 30.186 7.144C31.1287 7.144 31.8987 7.382 32.496 7.858C33.1027 8.32467 33.4387 8.96867 33.504 9.79H31.74C31.712 9.43533 31.544 9.132 31.236 8.88C30.928 8.628 30.522 8.502 30.018 8.502C29.5607 8.502 29.1873 8.61867 28.898 8.852C28.6087 9.08533 28.464 9.42133 28.464 9.86C28.464 10.1587 28.5527 10.406 28.73 10.602C28.9167 10.7887 29.15 10.938 29.43 11.05C29.71 11.162 30.0927 11.2833 30.578 11.414C31.222 11.5913 31.7447 11.7687 32.146 11.946C32.5567 12.1233 32.902 12.3987 33.182 12.772C33.4713 13.136 33.616 13.626 33.616 14.242C33.616 14.7367 33.4807 15.2033 33.21 15.642C32.9487 16.0807 32.5613 16.4353 32.048 16.706C31.544 16.9673 30.9467 17.098 30.256 17.098ZM34.6339 13.108C34.6339 12.3333 34.7926 11.6473 35.1099 11.05C35.4366 10.4527 35.8752 9.99067 36.4259 9.664C36.9859 9.328 37.6019 9.16 38.2739 9.16C38.8806 9.16 39.4079 9.28133 39.8559 9.524C40.3132 9.75733 40.6772 10.0513 40.9479 10.406V9.286H42.5579V17H40.9479V15.852C40.6772 16.216 40.3086 16.5193 39.8419 16.762C39.3752 17.0047 38.8432 17.126 38.2459 17.126C37.5832 17.126 36.9766 16.958 36.4259 16.622C35.8752 16.2767 35.4366 15.8007 35.1099 15.194C34.7926 14.578 34.6339 13.8827 34.6339 13.108ZM40.9479 13.136C40.9479 12.604 40.8359 12.142 40.6119 11.75C40.3972 11.358 40.1126 11.0593 39.7579 10.854C39.4032 10.6487 39.0206 10.546 38.6099 10.546C38.1992 10.546 37.8166 10.6487 37.4619 10.854C37.1072 11.05 36.8179 11.344 36.5939 11.736C36.3792 12.1187 36.2719 12.576 36.2719 13.108C36.2719 13.64 36.3792 14.1067 36.5939 14.508C36.8179 14.9093 37.1072 15.2173 37.4619 15.432C37.8259 15.6373 38.2086 15.74 38.6099 15.74C39.0206 15.74 39.4032 15.6373 39.7579 15.432C40.1126 15.2267 40.3972 14.928 40.6119 14.536C40.8359 14.1347 40.9479 13.668 40.9479 13.136ZM45.1328 8.264C44.8435 8.264 44.6008 8.166 44.4048 7.97C44.2088 7.774 44.1108 7.53133 44.1108 7.242C44.1108 6.95267 44.2088 6.71 44.4048 6.514C44.6008 6.318 44.8435 6.22 45.1328 6.22C45.4128 6.22 45.6508 6.318 45.8468 6.514C46.0428 6.71 46.1408 6.95267 46.1408 7.242C46.1408 7.53133 46.0428 7.774 45.8468 7.97C45.6508 8.166 45.4128 8.264 45.1328 8.264ZM45.9168 9.286V17H44.3208V9.286H45.9168ZM49.2749 10.406C49.5082 10.014 49.8162 9.71067 50.1989 9.496C50.5909 9.272 51.0529 9.16 51.5849 9.16V10.812H51.1789C50.5536 10.812 50.0776 10.9707 49.7509 11.288C49.4336 11.6053 49.2749 12.156 49.2749 12.94V17H47.6789V9.286H49.2749V10.406Z" fill="white"/>
<path d="M21.1914 17.8711H19.4751C19.3579 17.8711 19.248 17.9223 19.1748 18.0127C19.0039 18.2202 18.8208 18.4204 18.6279 18.6108C17.8391 19.4004 16.9047 20.0297 15.8765 20.4638C14.8112 20.9138 13.6662 21.1446 12.5098 21.1426C11.3403 21.1426 10.2075 20.9131 9.14306 20.4638C8.11481 20.0297 7.18043 19.4004 6.39159 18.6108C5.60135 17.8239 4.97123 16.8911 4.53613 15.8642C4.08447 14.7998 3.85742 13.6694 3.85742 12.5C3.85742 11.3305 4.08691 10.2002 4.53613 9.13572C4.9707 8.10789 5.5957 7.18259 6.39159 6.38914C7.18749 5.59568 8.11279 4.97068 9.14306 4.53611C10.2075 4.08689 11.3403 3.8574 12.5098 3.8574C13.6792 3.8574 14.812 4.08445 15.8765 4.53611C16.9067 4.97068 17.832 5.59568 18.6279 6.38914C18.8208 6.58201 19.0015 6.7822 19.1748 6.98728C19.248 7.07761 19.3603 7.12888 19.4751 7.12888H21.1914C21.3452 7.12888 21.4404 6.95798 21.355 6.82859C19.4824 3.91843 16.206 1.99216 12.4829 2.00193C6.63329 2.01658 1.94335 6.76511 2.00195 12.6074C2.06054 18.3569 6.74316 22.998 12.5098 22.998C16.2231 22.998 19.4849 21.0742 21.355 18.1714C21.438 18.042 21.3452 17.8711 21.1914 17.8711ZM23.3618 12.3462L19.8975 9.61179C19.7681 9.50925 19.5801 9.60203 19.5801 9.7656V11.6211H11.9141C11.8066 11.6211 11.7187 11.709 11.7187 11.8164V13.1836C11.7187 13.291 11.8066 13.3789 11.9141 13.3789H19.5801V15.2343C19.5801 15.3979 19.7705 15.4907 19.8975 15.3882L23.3618 12.6538C23.3852 12.6355 23.404 12.6122 23.417 12.5855C23.43 12.5589 23.4367 12.5296 23.4367 12.5C23.4367 12.4703 23.43 12.4411 23.417 12.4144C23.404 12.3878 23.3852 12.3644 23.3618 12.3462Z" fill="white"/>
</svg>
